<svg xmlns="http://www.w3.org/2000/svg" height="44.608" width="129.777"><defs><clipPath id="a" clipPathUnits="userSpaceOnUse"><path d="M0 33.456h97.333V0H0z"/></clipPath></defs><g clip-path="url(#a)" transform="matrix(1.33333 0 0 -1.33333 0 44.608)"><path d="M7.968 1.632l-.192.048-.096.048c.032 0-.024-.056-.168-.168a7.724 7.724 0 00-.504-.36 11.336 11.336 0 00-.576-.36C6.24.728 6.08.672 5.952.672c.032 0-.152.056-.552.168-.4.112-.856.288-1.368.528a6.19 6.19 0 00-1.392.888c-.416.352-.624.784-.624 1.296l.24 1.056c.03.096.016.256-.048.48a2.151 2.151 0 00-.096.576c0 2.592.192 5.328.576 8.208.03.352.08 1.384.144 3.096.064 1.71.144 4.087.24 7.128l.096 3.168c0 .128-.08.256-.24.384a.895.895 0 01-.576.192H.72c-.224 0-.336.064-.336.192 0 .127.064.28.192.456.127.176.192.328.192.456 0 .032-.04.136-.12.312l-.264.576a9.776 9.776 0 00-.264.624c-.08.208-.12.376-.12.504l.096.72c.064.512.103.895.12 1.152.016.256.184.384.504.384.16 0 .448-.072.864-.216a3.93 3.93 0 011.296-.216c.384 0 .799.008 1.248.024.448.016.928.04 1.44.072 1.6.096 2.592.144 2.976.144.608 0 1.32.072 2.136.216.816.144 1.64.216 2.472.216a8.58 8.58 0 001.056-.072c.384-.048.64-.072.768-.072h.768c.32 0 .52-.184.6-.552.08-.368.103-.76.072-1.176a7.434 7.434 0 00-.168-1.128c-.08-.336-.12-.488-.12-.456 0-.128.096-.312.288-.552.192-.24.288-.488.288-.744 0-.192-.04-.32-.12-.384-.08-.064-.296-.224-.648-.48l-.288-.336c-.16.224-.44.376-.84.456-.401.08-1.176.12-2.328.12l-4.032-.816.24-1.056c.03-.064 0-.16-.096-.288-.096-.128-.144-.416-.144-.864 0-.096-.024-.384-.072-.864a203.24 203.24 0 00-.168-1.608c-.064-.593-.12-1.16-.168-1.704a15.39 15.39 0 01-.072-1.104c0-.096.032-.24.096-.432l-.096-.336c-.032-.128.288-.192.96-.192.16 0 .512.064 1.056.192l1.68.096 1.392.288.768-.096.672.096c.256.064.432.032.528-.096.096-.128.208-.416.336-.864l.096-.336-.144-.432c-.032-.064-.016-.152.048-.264.064-.112.096-.152.096-.12 0-.128-.096-.368-.288-.72-.192-.352-.288-.656-.288-.912 0-.128.128-.368.384-.72.256-.353.384-.624.384-.816 0-.128-.064-.256-.192-.384s-.257-.192-.384-.192c-.161 0-.392.064-.696.192a2.39 2.39 0 01-.936.192c-1.217 0-2.224-.096-3.024-.288-.48-.161-.816-.24-1.008-.24l-1.536.048c-.192 0-.288-.368-.288-1.104v-1.824c0-.256-.008-.497-.024-.72a8.797 8.797 0 01-.024-.624c0-.864.024-1.704.072-2.52a83.57 83.57 0 01.168-2.328c.064-.544.192-.928.384-1.152.192-.224.288-.544.288-.96 0-.384-.161-.576-.48-.576m13.387 22.944l-.816-.096c-.225-.032-.488.048-.792.24a4.036 4.036 0 00-.864.744 5.034 5.034 0 00-.672.936c-.176.32-.264.608-.264.864 0 1.504.847 2.544 2.544 3.12l.72-.144c.928-.16 1.567-.504 1.92-1.032.351-.528.528-1.208.528-2.04 0-.352-.096-.68-.288-.984a4.69 4.69 0 00-.648-.816c-.24-.24-.536-.504-.888-.792zm.672-21.552l-.672.048-.72-.096c-.384-.065-.784.096-1.2.48a5.846 5.846 0 00-1.104 1.416 9.813 9.813 0 00-.792 1.776c-.208.624-.312 1.16-.312 1.608 0 .32.016.744.048 1.272.031.528.064 1.048.096 1.56.031.512.064.984.096 1.416.032.432.048.712.048.84 0 .576.079 1.184.24 1.824.16.64.295 1.256.408 1.848.111.592.16 1.152.144 1.68-.016.528-.216.952-.6 1.272l.096.24v.336c0 .096.088.216.264.36.175.144.312.2.408.168l.576-.048c.256.16.544.296.864.408.319.112.768.168 1.344.168.032 0 .184-.08.456-.24.271-.16.559-.352.864-.576.304-.224.576-.464.816-.72.24-.256.36-.48.36-.672 0-.128-.088-.48-.264-1.056a50.662 50.662 0 01-.6-2.16 31.958 31.958 0 01-.6-2.928 21.012 21.012 0 01-.264-3.36c0-2.176.432-3.264 1.296-3.264.48.032.904.312 1.272.84.367.528.688 1.016.96 1.464.271.448.48.696.624.744.144.048.216-.408.216-1.368l.048-1.296c0-.064-.129-.32-.384-.768l-.192-.384-.672-.72-.432-.336-.912-.864-.48-.288c-.608-.416-1.056-.624-1.344-.624"/><path d="M29.86 15.072c-.096-.256-.248-.904-.456-1.944a46.65 46.65 0 00-.792-3.288 29.188 29.188 0 00-1.032-3.096c-.368-.912-.76-1.368-1.176-1.368-.128 0-.192.112-.192.336 0 .096.016.264.048.504s.048.472.048.696v1.536c0 .352.064.768.192 1.248.096.288.192.72.288 1.296.096.576.176 1.144.24 1.704s.12 1.024.168 1.392c.048.368.072.504.072.408 0 .096-.048.264-.144.504-.096.24-.192.504-.288.792-.096.288-.192.568-.288.84-.096.272-.144.456-.144.552l.144 2.784.144 1.776-.048.48c0 .096.024.168.072.216.048.048.2.152.456.312l.576.528c.224.192.456.328.696.408.24.08.328.12.264.12.64 0 1.096-.144 1.368-.432.272-.288.408-.593.408-.912 0-.288-.072-.576-.216-.864-.144-.288-.216-.912-.216-1.872v-.336c0-.16.16-.24.48-.24.512 0 1.032.128 1.56.384s.936.559 1.224.912c.192.288.384.439.576.456.192.016.416-.04.672-.168.256-.128.56-.296.912-.504a6.181 6.181 0 011.296-.552c.384-.128.592-.4.624-.816.032-.416-.024-.896-.168-1.44a20.088 20.088 0 00-.528-1.68 13.314 13.314 0 01-.456-1.488v-.672c0-.8-.104-1.648-.312-2.544a11.455 11.455 0 01-.312-2.592c0-1.056.112-1.752.336-2.088.224-.336.752-.536 1.584-.6l.48-.096c.128 0 .288.144.48.432.192.288.4.616.624.984.224.367.432.696.624.984.192.288.352.432.48.432s.192-.16.192-.48V6.912c0-.768-.024-1.24-.072-1.416-.048-.176-.2-.424-.456-.744a17.513 17.513 0 00-2.568-2.448c-.912-.704-1.576-1.056-1.992-1.056-.832 0-1.592.256-2.28.768-.689.512-1.224 1.088-1.608 1.728-.48.832-.72 1.536-.72 2.112 0 1.216.032 2.16.096 2.832.064.672.16 1.376.288 2.112l.576 3.024c.064.256.112.456.144.6.032.144.048.232.048.264 0 .128-.072.288-.216.48-.144.192-.28.288-.408.288-.128 0-.312-.064-.552-.192a1.76 1.76 0 00-.84-.192m18.691-2.112a4.723 4.723 0 00-.576-1.2l-1.008-3.408c-.416-1.536-.856-2.752-1.32-3.648a6.173 6.173 0 01-.696-2.88c0-.065.016-.209.048-.432.031-.224.048-.369.048-.432 0-.448-.128-.72-.384-.816C44.406.048 44.04 0 43.56 0s-.8.041-.96.12c-.16.08-.368.36-.624.84h-.528c-.288 0-.52.271-.696.816-.176.544-.264 1.264-.264 2.16 0 1.856.016 3.376.048 4.56.032 1.183.08 2.016.144 2.496.127 1.056.224 1.864.288 2.424.064.56.096.888.096.984l-.096 2.592c-.032.384-.017.672.048.864.064.192.096.319.096.384 0 .127-.056.312-.168.552-.112.24-.168.343-.168.312 0 .543.208.904.624 1.08.416.175.8.264 1.152.264l.336.096.384-.192.864.048c.032 0 .16-.048.384-.144.223-.096.464-.224.72-.384.256-.161.488-.344.696-.552.208-.209.312-.408.312-.6-.128-.16-.272-.464-.432-.912-.16-.449-.257-1.025-.288-1.728l-.24-3.408a42.815 42.815 0 00-.336-3.168 37.98 37.98 0 01-.24-1.728c.192.48.448 1.16.768 2.04.32.88.648 1.768.984 2.664.336.896.64 1.728.912 2.496s.44 1.296.504 1.584c.256 1.056.448 1.688.576 1.896.128.208.464.36 1.008.456.031 0 .232.096.6.288.367.192.664.288.888.288l.768-.48c.736-.448 1.112-.696 1.128-.744.016-.048.024-.248.024-.6 0-.032.055-.152.168-.36.112-.209.168-.408.168-.6s-.016-.32-.048-.384a59.032 59.032 0 01-.672-4.176 30.417 30.417 0 01-.24-3.696c.223.512.703 1.887 1.44 4.128.416 1.216.744 2.16.984 2.832.24.672.432 1.231.576 1.68.144.448.256.856.336 1.224.08.367.168.823.264 1.368.096.511.2.847.312 1.008.112.16.168.463.168.912 0 .128.016.192.048.192l.816-.192c.192.128.424.216.696.264.271.048.936.151 1.992.312.192-.032.336-.096.432-.192.096-.096.367-.432.816-1.008l.384-.48.144-.432c.064-.256.144-.432.24-.528.096-.096.144-.176.144-.24 0-.353-.208-.736-.624-1.152 0 .128-.08-.161-.24-.864a86.324 86.324 0 01-.528-2.52 68.794 68.794 0 01-.504-2.88c-.144-.944-.216-1.592-.216-1.944 0-1.121.16-2.048.48-2.784.32-.736.751-1.104 1.296-1.104.16 0 .36.127.6.384.24.256.488.535.744.84.256.304.504.584.744.84s.44.384.6.384c.16 0 .24-.08.24-.24l-.048-.624a15.518 15.518 0 01-.048-1.008V6.12a.593.593 0 00-.048-.264 5.977 5.977 0 00-.192-.336 22.187 22.187 0 01-.576-.648 9.944 9.944 0 00-1.248-1.176 10.093 10.093 0 00-1.68-1.104c-.608-.32-1.217-.48-1.824-.48-.608 0-1.128.2-1.56.6-.432.4-.792.904-1.08 1.512a7.859 7.859 0 00-.624 1.968c-.128.704-.192 1.36-.192 1.968 0 .32.032.712.096 1.176.064.463.128.912.192 1.344l.168 1.152c.048.336.072.535.072.6 0 .031-.008.12-.024.264-.016.144-.04.327-.072.552a69.678 69.678 0 01-.864-1.776 10.8 10.8 0 01-.48-1.224 29.737 29.737 0 01-.408-1.416 76.682 76.682 0 00-.696-2.4c-.257-.864-.464-1.56-.624-2.088-.16-.528-.24-.92-.24-1.176l.048-1.488-.336-.624V.768c0-.224-.112-.336-.336-.336.256 0 .192.032-.192.096S50.96.744 50.4.984c-.56.24-1.097.592-1.608 1.056-.512.463-.768 1.096-.768 1.896 0 .703.031 1.503.096 2.4.064.895.127 1.752.192 2.568.064.816.128 1.536.192 2.16.064.624.096 1 .096 1.128v.288c0 .127-.016.288-.048.48"/><path d="M72.167 18.72c-.128 0-.36-.36-.696-1.08-.336-.72-.689-1.625-1.056-2.712a33.815 33.815 0 01-.984-3.6c-.288-1.313-.432-2.544-.432-3.696 0-.608.087-1.28.264-2.016.175-.736.439-1.104.792-1.104.544.704.967 1.32 1.272 1.848.303.528.583 1.11.84 1.752.255.64.384 1.248.384 1.824l.192.576.048.96c.031.48.151 1.128.36 1.944.207.816.351 1.616.432 2.4.079.784.04 1.464-.12 2.04-.161.576-.593.864-1.296.864m.864-13.248c-.129-.192-.344-.56-.648-1.104a20.696 20.696 0 00-1.056-1.68 8.461 8.461 0 00-1.368-1.536C69.446.704 68.934.48 68.423.48c-1.28 0-2.289.64-3.024 1.92-.737 1.279-1.104 2.736-1.104 4.368 0 .992.096 2.16.288 3.504.192 1.344.447 2.848.768 4.512.096.48.36 1.264.792 2.352a10.73 10.73 0 001.728 2.928c.72.864 1.567 1.416 2.544 1.656.976.24 2.071-.248 3.288-1.464.159-.161.303-.24.432-.24.096 0 .391-.032.888-.096a9.28 9.28 0 001.584-.36 6.275 6.275 0 001.512-.696c.447-.288.672-.656.672-1.104 0-.064-.065-.216-.192-.456-.128-.24-.192-.392-.192-.456v-.912c0-.64-.209-1.584-.624-2.832-.416-1.248-.624-2.608-.624-4.08 0-.64.12-1.32.36-2.04s.567-1.08.984-1.08c.288 0 .624.208 1.008.624.384.416.744.872 1.08 1.368.336.496.624.952.864 1.368.24.415.376.624.408.624.127 0 .192-.096.192-.288a4.72 4.72 0 00-.048-.552 5.279 5.279 0 01-.048-.696c0-.16.007-.344.024-.552.016-.208.024-.344.024-.408 0-.16-.129-.504-.384-1.032-.257-.528-.632-1.08-1.128-1.656a8.116 8.116 0 00-1.8-1.536c-.704-.448-1.505-.672-2.4-.672-.449.096-.984.336-1.608.72-.624.384-1.176 1.136-1.656 2.256m22.622-4.224c-.161 0-.641-.096-1.44-.288l-1.008.192-.768.096a15.37 15.37 0 01-.72.144 3.03 3.03 0 01-.432.048c-.288 0-.648-.032-1.08-.096-.432-.065-.857-.128-1.272-.192A28.795 28.795 0 0187.829.96a4.605 4.605 0 00-.576-.096c-.513 0-1.088.096-1.728.288-.32.096-.6.159-.84.192-.24.031-.432.112-.576.24-.144.127-.248.328-.312.6-.064.272-.081.696-.048 1.272 0 .255-.128.423-.384.504-.256.08-.384.328-.384.744 0-.033.304.487.912 1.56a359.387 359.387 0 012.088 3.744 217.197 217.197 0 012.28 4.248c.736 1.408 1.23 2.415 1.488 3.024.447 1.024.847 1.927 1.2 2.712.35.783.648 1.527.888 2.232.24.703.423 1.416.552 2.136.127.72.192 1.512.192 2.376 0 .415-.136.88-.408 1.392-.272.511-.648.768-1.128.768-.128 0-.408-.296-.84-.888A18.064 18.064 0 0188.86 25.8a21.06 21.06 0 01-1.248-2.904c-.368-1.056-.552-2.033-.552-2.928 0-.065.03-.177.096-.336.064-.161.096-.272.096-.336 0-.065-.096-.216-.288-.456-.192-.24-.32-.36-.384-.36l-.96.048c-.096 0-.264-.065-.504-.192-.24-.129-.408-.192-.504-.192-.161 0-.344.136-.552.408a7.958 7.958 0 00-.6.912c-.192.336-.36.663-.504.984-.144.32-.216.528-.216.624 0 .031.024.192.072.48.048.288.152.672.312 1.152l.96 2.88c.255.799.423 1.392.504 1.776l.192.912c.048.224.103.432.168.624.064.192.207.511.432.96.096.224.136.392.12.504-.016.112-.024.2-.024.264 0 .063.024.12.072.168.048.048.199.12.456.216l.288.192c.128-.096.288-.192.48-.288a27.19 27.19 0 001.776.432l1.44.288c.48.096.83.144 1.056.144 1.12 0 1.983-.161 2.592-.48 1.31-.512 2.256-1.184 2.832-2.016.576-.833.864-1.937.864-3.312 0-3.616-.96-6.881-2.88-9.792-.288-.48-.48-.833-.576-1.056a12.272 12.272 0 01-.264-.672 9.658 9.658 0 00-.36-.84c-.161-.336-.464-.857-.912-1.56a80.698 80.698 0 01-2.136-3.6c-.528-.96-.792-1.697-.792-2.208v-.528l.816.24 1.392-.192c.352-.065.888-.009 1.608.168.72.175 1.704.264 2.952.264.256 0 .384-.144.384-.432v-.672l.096-.48c.064-.256.144-.585.24-.984a4.85 4.85 0 00.144-1.128c0-.513-.104-.849-.312-1.008-.208-.161-.57-.24-1.08-.24"/></g></svg>